<?xml version="1.0" standalone="no"?>
<!DOCTYPE svg PUBLIC "-//W3C//DTD SVG 20010904//EN"
 "http://www.w3.org/TR/2001/REC-SVG-20010904/DTD/svg10.dtd">
<svg version="1.0" xmlns="http://www.w3.org/2000/svg"
 width="700.000000pt" height="700.000000pt" viewBox="0 0 700.000000 700.000000"
 preserveAspectRatio="xMidYMid meet">
<metadata>
Created by potrace 1.14, written by Peter Selinger 2001-2017
</metadata>
<g transform="translate(0.000000,700.000000) scale(0.100000,-0.100000)"
fill="#000000" stroke="none">
<path d="M3278 6996 c-1 -2 -39 -6 -83 -10 -123 -9 -292 -34 -400 -58 -192
-42 -427 -111 -454 -132 -18 -14 -201 -291 -201 -304 0 -6 -3 -12 -7 -14 -22
-9 -263 -492 -263 -526 0 -4 25 -20 57 -37 31 -16 78 -51 105 -78 l49 -49 132
8 c205 11 448 7 612 -11 22 -2 60 -6 85 -9 70 -8 191 -26 240 -36 25 -5 56
-12 70 -14 14 -2 47 -9 74 -16 27 -6 52 -7 56 -3 4 4 40 51 81 103 280 360
581 663 941 947 l128 101 -33 7 c-17 4 -36 9 -42 10 -216 57 -281 69 -595 111
-47 6 -545 15 -552 10z"/>
<path d="M4675 6663 c-236 -186 -507 -443 -683 -648 -47 -55 -91 -104 -97
-110 -5 -5 -42 -50 -81 -100 -148 -188 -158 -205 -131 -205 15 0 264 -95 352
-135 440 -196 828 -465 1186 -821 116 -116 138 -133 150 -122 56 57 193 100
273 88 45 -7 48 -6 57 18 23 59 74 232 83 277 1 6 5 19 9 30 3 11 8 33 11 49
3 16 10 52 15 80 10 49 12 61 25 136 38 228 41 601 8 841 -9 61 -8 60 -97 134
-33 28 -68 58 -79 67 -41 37 -247 180 -346 241 -165 101 -499 267 -537 267 -5
0 -58 -39 -118 -87z"/>
<path d="M1920 6623 c-366 -193 -658 -408 -925 -683 -113 -116 -103 -105 -171
-185 -105 -124 -301 -400 -321 -453 -5 -13 0 -12 28 5 58 35 249 129 354 173
194 82 182 75 190 111 12 58 64 143 118 197 81 79 215 152 310 168 97 16 88 8
169 164 83 161 157 285 251 423 79 116 80 117 70 116 -4 -1 -37 -17 -73 -36z"/>
<path d="M6040 5895 c0 -5 6 -44 14 -85 34 -182 40 -262 41 -520 0 -124 -4
-261 -8 -305 -11 -114 -39 -287 -59 -360 -5 -22 -12 -49 -14 -60 -9 -49 -13
-63 -29 -118 -16 -55 -16 -58 3 -90 125 -203 138 -534 31 -773 l-18 -41 53
-124 c137 -317 243 -695 281 -1004 4 -27 8 -61 10 -75 5 -31 13 -112 21 -205
11 -139 5 -545 -10 -623 -8 -39 8 -24 71 72 239 360 415 789 502 1223 16 81
33 175 36 208 4 33 9 69 11 80 19 93 26 543 11 710 -60 662 -298 1278 -700
1810 -104 137 -246 299 -247 280z"/>
<path d="M1528 5723 c-128 -43 -194 -167 -135 -253 69 -102 262 -104 369 -3
35 33 58 82 58 123 0 110 -154 180 -292 133z"/>
<path d="M2115 5462 c-24 -2 -36 -11 -50 -38 -49 -91 -212 -204 -345 -240 -70
-19 -83 -26 -86 -48 -2 -15 -5 -32 -23 -163 -21 -143 -26 -242 -26 -493 1
-282 6 -360 35 -555 50 -338 155 -711 270 -962 11 -24 20 -46 20 -49 0 -3 29
-66 65 -139 l65 -132 102 1 102 1 1 40 c4 72 15 232 19 251 2 10 7 46 10 79 9
74 14 114 26 185 13 76 16 96 29 165 12 67 13 71 36 175 9 41 18 84 21 95 2
11 22 88 45 170 103 378 252 759 444 1135 37 71 168 305 180 320 6 8 24 36 38
62 l27 47 -52 10 c-187 39 -343 60 -553 77 -95 7 -349 11 -400 6z"/>
<path d="M1007 5260 c-166 -56 -345 -129 -498 -205 -200 -99 -190 -90 -239
-207 -88 -213 -168 -478 -206 -683 -9 -49 -17 -97 -19 -105 -1 -8 -6 -37 -9
-65 -4 -27 -9 -66 -11 -85 -27 -203 -27 -657 0 -821 2 -13 6 -46 10 -74 9 -76
16 -116 25 -160 5 -22 11 -53 14 -70 29 -158 20 -145 169 -219 326 -160 751
-297 1062 -342 17 -2 41 -6 55 -9 14 -3 51 -8 83 -11 50 -5 57 -4 57 11 0 39
68 151 133 219 37 39 67 72 67 74 0 1 -30 64 -66 140 -78 164 -75 158 -113
252 -84 211 -156 454 -200 676 -29 145 -33 168 -46 284 -4 30 -8 66 -11 80
-22 140 -23 678 0 795 2 11 7 47 10 80 9 71 16 121 22 155 2 14 7 41 10 60 3
19 12 63 19 98 11 53 11 62 -2 62 -21 0 -72 28 -130 71 -29 22 -56 39 -60 39
-4 -1 -61 -18 -126 -40z"/>
<path d="M3392 5197 c-261 -426 -490 -957 -626 -1452 -32 -118 -96 -397 -111
-485 -28 -164 -40 -250 -51 -350 -3 -30 -7 -66 -9 -80 -4 -25 -17 -199 -20
-255 -1 -30 19 -65 38 -65 13 0 100 -67 147 -112 27 -26 101 -112 117 -137 1
-2 42 6 90 19 48 12 95 23 103 25 8 2 62 17 120 34 620 181 1199 515 1640 946
118 115 184 186 268 287 63 74 72 90 67 115 -24 116 -34 187 -34 243 0 69 14
194 24 222 10 27 -266 299 -455 448 -36 29 -74 59 -86 68 -25 21 -51 39 -174
124 -258 177 -583 342 -882 446 l-116 41 -50 -82z"/>
<path d="M5562 4216 c-48 -17 -92 -64 -123 -131 -24 -53 -27 -71 -26 -150 2
-77 6 -99 31 -150 29 -59 38 -69 83 -101 83 -58 196 -16 251 93 107 210 -36
501 -216 439z"/>
<path d="M5384 3282 c-59 -80 -142 -172 -298 -328 -548 -548 -1268 -923 -2071
-1079 -16 -3 -21 -13 -23 -42 -5 -80 -34 -171 -75 -241 l-20 -34 20 -17 c11
-9 65 -52 120 -97 223 -181 458 -331 728 -464 134 -66 311 -144 350 -154 6 -2
22 -8 37 -14 69 -28 383 -121 464 -136 11 -2 64 -13 119 -25 55 -11 120 -23
145 -26 25 -3 52 -7 60 -10 8 -2 44 -6 80 -10 36 -3 79 -8 95 -10 17 -2 94 -7
172 -11 l142 -6 88 63 c222 159 445 359 610 548 33 38 39 52 44 110 7 73 3
524 -4 556 -3 12 -8 54 -11 96 -3 41 -8 85 -11 99 -3 14 -8 45 -11 70 -3 25
-7 52 -9 60 -3 8 -7 33 -11 55 -3 22 -10 60 -16 85 -5 25 -12 55 -14 68 -38
195 -156 545 -263 777 -57 123 -69 139 -87 125 -7 -7 -51 -14 -96 -17 -81 -5
-112 1 -209 41 -12 5 -25 -4 -45 -32z"/>
<path d="M200 2335 c0 -6 28 -81 45 -120 8 -16 22 -52 33 -80 77 -196 249
-498 401 -705 58 -79 188 -237 231 -281 14 -15 46 -48 71 -75 69 -73 186 -183
259 -244 36 -30 67 -58 70 -61 12 -13 203 -150 280 -200 298 -195 646 -352
980 -442 135 -37 270 -66 270 -58 0 3 -16 33 -36 66 -95 156 -249 493 -313
685 -12 36 -26 74 -31 85 -13 32 -68 224 -84 294 -8 34 -17 65 -20 68 -3 3
-35 7 -73 9 -231 13 -427 99 -588 258 -84 82 -133 156 -175 258 -31 78 -27 76
-126 92 -62 11 -305 76 -416 112 -233 76 -481 183 -687 297 -85 48 -91 51 -91
42z"/>
<path d="M2112 2309 c-166 -31 -283 -167 -276 -321 7 -176 164 -342 355 -377
172 -31 329 35 404 170 27 48 30 63 30 139 -1 70 -5 95 -27 141 -48 104 -163
203 -273 234 -63 18 -157 24 -213 14z"/>
<path d="M2664 1318 c3 -7 14 -56 26 -108 27 -117 94 -352 121 -428 49 -134
102 -266 148 -368 82 -183 194 -389 214 -396 25 -9 128 -13 342 -12 217 0 376
10 475 29 14 3 43 7 65 10 22 2 51 7 65 10 14 3 41 8 60 11 19 3 62 13 95 21
33 8 70 17 83 19 78 15 433 135 499 169 15 8 32 15 37 15 10 0 297 142 294
145 -2 2 -82 5 -178 9 -96 3 -188 8 -205 10 -16 2 -61 7 -100 11 -38 3 -81 8
-95 10 -118 18 -226 38 -280 51 -36 9 -76 18 -90 20 -27 4 -44 9 -185 50 -453
132 -919 370 -1288 658 -54 42 -100 76 -102 76 -2 0 -3 -6 -1 -12z"/>
</g>
</svg>
